<svg xmlns="http://www.w3.org/2000/svg" width="114" height="29" viewBox="0 0 114 29">
  <g id="ver_localização" data-name="ver localização" transform="translate(0)">
    <g id="Grupo_2867" data-name="Grupo 2867" transform="translate(0 0)">
      <path id="Retângulo_1224" data-name="Retângulo 1224" d="M14.5,2A12.5,12.5,0,0,0,5.661,23.339,12.418,12.418,0,0,0,14.5,27h85a12.5,12.5,0,0,0,8.839-21.339A12.418,12.418,0,0,0,99.5,2h-85m0-2h85a14.5,14.5,0,0,1,0,29h-85a14.5,14.5,0,0,1,0-29Z" fill="#fff"/>
      <path id="Excepteur_sint_occaecat_cupidatat_non_proident_sunt_in_culpa_qui_officia_deserunt_mollit_anim_id_est_eopksio_laborum._Sed_ut_perspiciatis_unde_omnis_" data-name="Excepteur sint occaecat cupidatat non proident, sunt in culpa qui officia deserunt mollit anim id est eopksio laborum. Sed ut perspiciatis unde omnis " d="M2.75,0h1.1L6.36-7H5.33L3.31-1.09,1.28-7H.24ZM9.19.15a2.915,2.915,0,0,0,1.73-.52v-.88A2.635,2.635,0,0,1,9.3-.7,1.651,1.651,0,0,1,7.48-2.34H11.1V-3A1.988,1.988,0,0,0,8.96-5.15,2.377,2.377,0,0,0,6.51-2.53,2.514,2.514,0,0,0,9.19.15ZM7.5-3.02a1.372,1.372,0,0,1,1.43-1.3,1.192,1.192,0,0,1,1.28,1.3ZM12.32,0h.92V-2.68c.01-.97.46-1.53,1.06-1.53a1.325,1.325,0,0,1,.8.24v-.88a.963.963,0,0,0-.66-.24c-.53,0-.97.38-1.2,1.08V-5h-.92Zm6.12,0h.92V-7.2h-.92Zm4.58.15A2.44,2.44,0,0,0,25.47-2.5a2.44,2.44,0,0,0-2.45-2.65A2.436,2.436,0,0,0,20.59-2.5,2.436,2.436,0,0,0,23.02.15Zm0-.84c-.94,0-1.49-.75-1.49-1.81s.55-1.81,1.49-1.81,1.51.75,1.51,1.81S23.97-.69,23.02-.69Zm5.9.84A2.843,2.843,0,0,0,30.54-.3v-.9a2.367,2.367,0,0,1-1.46.51,1.705,1.705,0,0,1-1.82-1.84,1.657,1.657,0,0,1,1.71-1.78,2.134,2.134,0,0,1,1.51.57v-1a2.7,2.7,0,0,0-1.56-.41,2.507,2.507,0,0,0-2.6,2.63A2.54,2.54,0,0,0,28.92.15Zm4.22,0a1.5,1.5,0,0,0,1.42-.82V0h.91V-3.04a1.948,1.948,0,0,0-2.12-2.11,2.687,2.687,0,0,0-1.68.57v.94a2.1,2.1,0,0,1,1.55-.68,1.256,1.256,0,0,1,1.34,1.38v.44a1.552,1.552,0,0,0-1.34-.63A1.653,1.653,0,0,0,31.4-1.5,1.649,1.649,0,0,0,33.14.15Zm.3-.74c-.71,0-1.1-.37-1.1-.94s.4-.92,1.11-.92c.69,0,1.11.38,1.11.9A1,1,0,0,1,33.44-.59ZM36.98,0h.92V-7.2h-.92ZM39.5,0h.92V-5H39.5Zm.46-5.92a.6.6,0,0,0,.6-.6.579.579,0,0,0-.6-.58.588.588,0,0,0-.61.58A.6.6,0,0,0,39.96-5.92ZM41.61,0h3.84V-.82H42.57l2.71-3.37V-5h-3.6v.8h2.55L41.61-.88Zm6.37.15A1.5,1.5,0,0,0,49.4-.67V0h.91V-3.04a1.948,1.948,0,0,0-2.12-2.11,2.687,2.687,0,0,0-1.68.57v.94a2.1,2.1,0,0,1,1.55-.68A1.256,1.256,0,0,1,49.4-2.94v.44a1.552,1.552,0,0,0-1.34-.63A1.653,1.653,0,0,0,46.24-1.5,1.649,1.649,0,0,0,47.98.15Zm.3-.74c-.71,0-1.1-.37-1.1-.94s.4-.92,1.11-.92c.69,0,1.11.38,1.11.9A1,1,0,0,1,48.28-.59Zm5.81,2.57c.64,0,1-.36,1-.85A.817.817,0,0,0,54.2.29h-.01V.15A2.74,2.74,0,0,0,55.66-.3v-.9a2.367,2.367,0,0,1-1.46.51,1.705,1.705,0,0,1-1.82-1.84,1.657,1.657,0,0,1,1.71-1.78,2.134,2.134,0,0,1,1.51.57v-1a2.7,2.7,0,0,0-1.56-.41,2.507,2.507,0,0,0-2.6,2.63A2.532,2.532,0,0,0,53.72.13v.6h.26c.37,0,.54.13.54.35s-.15.36-.46.36a.972.972,0,0,1-.69-.26v.58A1.252,1.252,0,0,0,54.09,1.98ZM58.26.15a1.5,1.5,0,0,0,1.42-.82V0h.91V-3.04a1.948,1.948,0,0,0-2.12-2.11,2.687,2.687,0,0,0-1.68.57v.94a2.1,2.1,0,0,1,1.55-.68,1.256,1.256,0,0,1,1.34,1.38v.44a1.552,1.552,0,0,0-1.34-.63A1.653,1.653,0,0,0,56.52-1.5,1.649,1.649,0,0,0,58.26.15Zm.3-.74c-.71,0-1.1-.37-1.1-.94s.4-.92,1.11-.92c.69,0,1.11.38,1.11.9A1,1,0,0,1,58.56-.59Zm.73-5.01c.53,0,.85-.36.85-1.04h-.55c0,.26-.11.45-.37.45-.36,0-.64-.58-1.18-.58s-.86.36-.86,1.05h.54c0-.27.1-.45.37-.45C58.45-6.17,58.74-5.6,59.29-5.6ZM64.16.15A2.44,2.44,0,0,0,66.61-2.5a2.44,2.44,0,0,0-2.45-2.65A2.436,2.436,0,0,0,61.73-2.5,2.436,2.436,0,0,0,64.16.15Zm0-.84c-.94,0-1.49-.75-1.49-1.81s.55-1.81,1.49-1.81,1.51.75,1.51,1.81S65.11-.69,64.16-.69Z" transform="translate(29.841 18.242)" fill="#fff"/>
      <g id="Layer_2" data-name="Layer 2" transform="translate(9.658 5)">
        <g id="invisible_box" data-name="invisible box">
          <rect id="Retângulo_1695" data-name="Retângulo 1695" width="19" height="19" fill="none"/>
        </g>
        <g id="icons_Q2" data-name="icons Q2" transform="translate(2.795 0.798)">
          <path id="Caminho_11925" data-name="Caminho 11925" d="M13.787,3.6a5.28,5.28,0,0,1,5.19,5.589c0,3.194-3.433,6.667-5.19,8.464C12.03,15.853,8.6,12.18,8.6,9.186A5.4,5.4,0,0,1,13.787,3.6m0-1.6A6.876,6.876,0,0,0,7,9.186c0,3.952,4.591,8.5,6.228,10.14a.759.759,0,0,0,1.118,0c1.637-1.637,6.228-6.108,6.228-10.14S17.739,2,13.787,2Z" transform="translate(-7 -2)" fill="#ffc51d"/>
          <path id="Caminho_11926" data-name="Caminho 11926" d="M22.448,14.579l-1.158-.16-.519-1.158a.4.4,0,0,0-.719,0l-.519,1.158-1.158.16a.439.439,0,0,0-.24.719l.838.8-.2,1.238a.439.439,0,0,0,.6.439l1.038-.759,1.038.759a.439.439,0,0,0,.6-.439l-.2-1.238.838-.8a.439.439,0,0,0-.24-.719Z" transform="translate(-13.625 -8.63)" fill="#ffc51d"/>
        </g>
      </g>
    </g>
  </g>
</svg>
