<svg xmlns="http://www.w3.org/2000/svg" width="125.825" height="37.094" viewBox="0 0 125.825 37.094">
  <path id="logo_holy" d="M62.989,27.059a1.525,1.525,0,0,1-.141-1.159,1.532,1.532,0,0,1,1.47-1.117,1.586,1.586,0,0,1,.407.055,1.525,1.525,0,0,1,.921.718,14.747,14.747,0,0,0,20.83,5.136l.293-.051.045,0,.1-.009.006-.024a6.483,6.483,0,0,0,2.357-.89,5.22,5.22,0,0,0,2.03-2.393l.175-.562-.381.447a6.658,6.658,0,0,1-2.121,1.6,7.773,7.773,0,0,1-1.608.526,8.016,8.016,0,0,1,6.25-4.874l.236-.045.036.236c.522,3.486-1.258,6.035-3.289,6.751l-.045.03-.1.015-.028.027a17.8,17.8,0,0,1-27.447-4.421Zm-23.2,3.905a1.587,1.587,0,0,1-.8-2.1l2.867-6.443.022-.051L36.908,11.354a1.589,1.589,0,1,1,2.9-1.307l3.8,8.432,3.751-8.423a1.592,1.592,0,0,1,2.1-.809,1.591,1.591,0,0,1,.806,2.1L41.882,30.157a1.583,1.583,0,0,1-1.448.945A1.6,1.6,0,0,1,39.785,30.964ZM55.94,25.293a1.593,1.593,0,0,1-1.352-1.343V10.861H53.006a1.69,1.69,0,0,1-.718-.3,1.462,1.462,0,0,1-.546-1.621,1.579,1.579,0,0,1,1.442-1.1c.131-.006.26-.009.39-.009.166,0,.329,0,.492.009l.437.009h.114l.009-.211a11.089,11.089,0,0,1,.517-3.383A6.8,6.8,0,0,1,61.181,0h.637l.863.1a1.809,1.809,0,0,1,1.542.887,1.518,1.518,0,0,1,.051,1.353,1.5,1.5,0,0,1-1.071.806,1.613,1.613,0,0,1-.772-.033c-.076-.018-.151-.036-.238-.049a4.194,4.194,0,0,0-2.976.58A3.984,3.984,0,0,0,57.69,5.915,14.977,14.977,0,0,0,57.557,7.6l-.009.227h3.428a1.549,1.549,0,0,1,1.416,1.011,1.5,1.5,0,0,1-.428,1.66,1.652,1.652,0,0,1-.984.365H57.621V23.9a1.584,1.584,0,0,1-.812,1.222,2.083,2.083,0,0,1-.535.169l-.033.005-.033,0c-.027,0-.054,0-.1,0s-.063,0-.1,0A.7.7,0,0,1,55.94,25.293ZM14.993,16.357a7.391,7.391,0,1,1,7.391,7.391A7.4,7.4,0,0,1,14.993,16.357Zm3.178,0a4.213,4.213,0,1,0,4.213-4.213A4.217,4.217,0,0,0,18.171,16.357Zm-7.742,6.984a1.6,1.6,0,0,1-.6-1.256v-6.76A3.212,3.212,0,0,0,7.1,12.119a4.111,4.111,0,0,0-.5-.032,3.518,3.518,0,0,0-2.342.884A3.566,3.566,0,0,0,3.036,15.66v6.434a1.556,1.556,0,0,1-1.518,1.587A1.554,1.554,0,0,1,0,22.094V3.477A1.567,1.567,0,0,1,1.189,1.934a1.484,1.484,0,0,1,1.253.293,1.608,1.608,0,0,1,.594,1.261V9.917l.178-.106a6.749,6.749,0,0,1,3.4-.917,6.437,6.437,0,0,1,6.428,6.428v6.742a1.627,1.627,0,0,1-1.24,1.59,1.689,1.689,0,0,1-.366.04A1.6,1.6,0,0,1,10.429,23.341Zm22.6.3A1.569,1.569,0,0,1,31.842,22.1V3.479a1.57,1.57,0,0,1,1.189-1.545,1.544,1.544,0,0,1,.326-.036,1.489,1.489,0,0,1,.923.326,1.6,1.6,0,0,1,.6,1.264V22.094a1.6,1.6,0,0,1-.6,1.261,1.5,1.5,0,0,1-1.252.29Zm85.393-.6c-4.234-.259-5.658-2.587-5.806-2.852a1.6,1.6,0,0,1,.549-2.152,1.433,1.433,0,0,1,.767-.229,1.922,1.922,0,0,1,1.382.718l.033.039a4.214,4.214,0,0,0,3.265,1.309,4.071,4.071,0,0,0,2.758-.643.836.836,0,0,0,.281-.676c0-.76-.446-1.066-3.236-1.494-2.137-.328-5.712-.877-5.712-4.382a3.971,3.971,0,0,1,1.274-2.978,6.581,6.581,0,0,1,4.949-1.436,9.283,9.283,0,0,1,4.144,1.258,1.585,1.585,0,0,1-1.7,2.677,6.46,6.46,0,0,0-2.661-.769,3.745,3.745,0,0,0-2.566.589.814.814,0,0,0-.268.661c0,.532.3.827,3.024,1.247,2.215.341,5.927.912,5.927,4.63a4,4,0,0,1-1.28,2.988,6.512,6.512,0,0,1-4.5,1.516Q118.738,23.064,118.421,23.045ZM102.5,22.982a7.126,7.126,0,0,1-5.81-5.831,7.677,7.677,0,0,1,1.6-6.343,6.854,6.854,0,0,1,5.27-2.523,6.73,6.73,0,0,1,3.79,1.174l.187.127V2.508A1.568,1.568,0,0,1,108.725.966a1.486,1.486,0,0,1,1.253.293,1.607,1.607,0,0,1,.594,1.262V21.343a1.567,1.567,0,0,1-1.183,1.542,1.468,1.468,0,0,1-1.256-.286,1.575,1.575,0,0,1-.507-.715l-.051-.151-.13.094a6.735,6.735,0,0,1-3.9,1.238A6.909,6.909,0,0,1,102.5,22.982Zm-3.308-7.334a4.214,4.214,0,1,0,4.21-4.37A4.3,4.3,0,0,0,99.188,15.647Zm-19.347.263a7.109,7.109,0,1,1,7.11,7.107A7.118,7.118,0,0,1,79.841,15.91Zm10.768,1.349.136.105L90.8,17.2a4.057,4.057,0,1,0-7.7,0l.058.16.132-.105a5.886,5.886,0,0,1,7.319,0ZM62.889,15.91A7.107,7.107,0,1,1,70,23.017,7.116,7.116,0,0,1,62.889,15.91Zm10.768,1.346.132.108.054-.163a4.059,4.059,0,1,0-7.907-1.292,4.084,4.084,0,0,0,.212,1.292l.054.16.133-.105a5.885,5.885,0,0,1,7.321,0Z" transform="translate(0.5 0.5)" fill="#ffffff" stroke="none" stroke-width="0"/>
</svg>
